# xmcd
#
# Track frame offsets: 
#        182
#        11445
#        25245
#        37242
#        48755
#        63740
#        73617
#        86962
#        100742
#        114085
#        126982
#        139692
#        150987
#        161065
#        170977
#        180122
#        189690
#        201640
#        214250
#        228205
#        239822
#        254615
#
# Disc length: 3646 seconds
#
# Revision: 2
# Processed by: cddbd v1.5.1PL2 Copyright (c) Steve Scherf et al.
# Submitted via: ExactAudioCopy v0.95b4
#
DISCID=420e3c16
DTITLE=Professor Longhair - 'Fess- The Professor Longhair Anthology [D
DTITLE=isk 1]
DYEAR=1993
DGENRE=Blues
TTITLE0=Bald Head
TTITLE1=Hadacol Bounce
TTITLE2=Tipitina
TTITLE3=In The Night
TTITLE4=Ball the Wall
TTITLE5=Who's Been Fooling You
TTITLE6=Hey Now Baby
TTITLE7=Hey Little Girl
TTITLE8=Walk Your Blues Away
TTITLE9=She Walks Right In
TTITLE10=Willie Mae
TTITLE11=Professor Longhair Blues
TTITLE12=Baby, Let Me Hold Your Hand
TTITLE13=No Buts - No Maybes
TTITLE14=Misery
TTITLE15=Looka, No Hair
TTITLE16=Cuttin' Out
TTITLE17=Go To The Mardi Gras
TTITLE18=There Is Something On Your Mind
TTITLE19=Big Chief - Part 2
TTITLE20=Hey Little Girl (Live)
TTITLE21=Hey Now Baby (Live)
EXTD=
EXTT0=Roy Byrd and His Blues Jumpers
EXTT1=Roy Byrd and His Blues Jumbers
EXTT2=
EXTT3=Professor Longhair and His Blues Scholars
EXTT4=
EXTT5=
EXTT6=
EXTT7=Roland Byrd
EXTT8=Professor Longhair and His Blues Scholars
EXTT9=Roy "Baldhead" Byrd
EXTT10=Roland Byrd
EXTT11=Professor Longhair and His Blues Scholars
EXTT12=
EXTT13=
EXTT14=
EXTT15=
EXTT16=
EXTT17=
EXTT18=
EXTT19=
EXTT20=
EXTT21=
PLAYORDER=
